<svg xmlns="http://www.w3.org/2000/svg" version="1.0" width="980.000000" height="778.000000" preserveAspectRatio="xMidYMid meet"><rect id="backgroundrect" width="100%" height="100%" x="0" y="0" fill="none" stroke="none"/>
<metadata>
Created by potrace 1.15, written by Peter Selinger 2001-2017
</metadata>

<g class="currentLayer" style=""><title>Layer 1</title><g transform="translate(0,778) scale(0.10000000149011612,-0.10000000149011612) " fill="#ffffff" stroke="none" id="svg_1" class="selected" fill-opacity="1">
<path d="M5434 7762 c-28 -10 -73 -37 -100 -59 -27 -23 -518 -511 -1090 -1085 -1007 -1008 -1042 -1045 -1064 -1103 -73 -198 66 -399 275 -399 132 0 70 -56 1122 996 524 524 954 950 957 948 3 -3 859 -858 1903 -1901 1825 -1823 1900 -1897 1956 -1918 121 -44 229 -21 319 69 87 87 110 190 67 307 -20 55 -66 103 -1035 1073 l-1014 1015 -2 690 c-3 678 -3 691 -24 736 -51 111 -149 173 -269 173 -127 0 -230 -72 -275 -191 -19 -50 -20 -78 -20 -436 l0 -382 -722 721 c-687 685 -726 723 -781 743 -70 25 -135 26 -203 3z" id="svg_2" fill="#ffffff" fill-opacity="1"/>
<path d="M5467 6589 c-20 -5 -54 -18 -75 -28 -21 -11 -393 -376 -852 -835 l-815 -816 41 0 c109 0 264 -81 334 -174 48 -63 87 -147 96 -203 6 -40 8 -43 38 -43 50 0 152 -28 208 -56 28 -14 72 -46 99 -71 101 -95 149 -206 149 -349 0 -72 3 -85 18 -90 128 -40 232 -130 289 -250 37 -78 38 -81 38 -199 0 -101 -3 -127 -21 -166 l-21 -45 56 -45 c48 -38 122 -128 134 -162 2 -6 30 10 63 35 96 75 203 118 291 118 146 0 329 -123 410 -277 62 -115 63 -124 63 -805 0 -495 3 -631 14 -692 42 -219 183 -405 381 -502 170 -83 109 -79 1085 -79 l865 0 80 23 c209 61 373 199 461 389 69 148 67 115 71 979 3 460 0 825 -5 886 -18 192 143 15 -1636 1796 -870 871 -1600 1597 -1623 1613 -41 28 -137 60 -178 58 -11 -1 -37 -5 -58 -10z" id="svg_3" fill="#ffffff" fill-opacity="1"/>
<path d="M2393 5035 c-39 -20 -70 -49 -128 -120 -42 -52 -82 -95 -87 -95 -6 0 -46 25 -90 56 -44 31 -99 64 -122 75 -75 34 -185 20 -255 -32 -42 -31 -70 -77 -116 -189 -21 -52 -40 -96 -41 -98 -1 -2 -52 13 -113 32 -161 52 -237 48 -324 -18 -60 -46 -87 -111 -102 -249 -8 -67 -14 -123 -15 -124 0 -1 -51 0 -113 4 -150 8 -209 -8 -277 -77 -37 -36 -53 -62 -66 -106 -17 -57 -16 -63 5 -188 12 -71 21 -130 19 -131 -2 -1 -52 -14 -112 -29 -124 -31 -148 -41 -195 -88 -49 -48 -75 -111 -76 -184 0 -53 6 -73 57 -176 41 -86 53 -119 45 -126 -7 -5 -46 -29 -87 -52 -109 -63 -133 -84 -166 -142 -24 -45 -29 -64 -29 -123 1 -90 24 -135 121 -236 41 -41 74 -80 74 -85 0 -5 -38 -51 -84 -102 -98 -107 -122 -161 -113 -247 11 -104 53 -155 203 -245 49 -29 90 -54 92 -56 2 -1 -23 -53 -54 -115 -52 -104 -57 -120 -57 -179 0 -75 17 -121 63 -174 44 -50 87 -70 215 -102 105 -26 107 -27 102 -53 -31 -158 -39 -238 -28 -278 20 -73 70 -134 135 -168 59 -30 62 -30 192 -27 l133 3 5 -33 c3 -18 10 -73 16 -122 12 -106 37 -163 93 -211 43 -37 118 -65 171 -65 17 0 84 18 149 39 l118 39 21 -46 c11 -26 31 -75 45 -108 30 -77 80 -136 135 -161 110 -51 180 -38 326 60 l105 71 31 -39 c140 -178 186 -210 296 -210 95 0 147 29 224 123 33 42 71 87 82 101 l21 25 105 -71 c151 -101 232 -113 341 -50 58 34 87 74 132 182 20 50 41 97 46 107 8 14 20 12 126 -23 131 -43 157 -46 229 -24 117 35 168 115 187 293 l12 117 135 1 c152 0 198 13 258 73 75 75 89 141 62 293 -11 62 -20 118 -20 124 0 6 48 23 108 39 129 33 169 52 212 101 46 53 63 99 63 171 1 55 -5 74 -56 179 -32 64 -56 118 -55 119 2 1 41 24 88 51 146 84 196 145 207 249 9 87 -15 140 -113 247 -46 51 -84 95 -84 99 0 3 34 43 76 89 112 122 140 199 110 305 -23 76 -73 129 -191 199 -52 31 -95 59 -95 61 0 2 25 54 55 116 47 96 55 120 55 169 0 67 -14 113 -47 158 -46 61 -96 88 -218 118 -131 32 -124 21 -100 147 31 163 9 261 -75 327 -65 52 -110 62 -250 58 l-125 -3 -12 110 c-7 61 -20 130 -29 154 -36 96 -131 161 -235 161 -37 0 -89 -12 -159 -35 -57 -19 -107 -35 -111 -35 -3 0 -26 47 -50 105 -24 59 -58 124 -78 147 -64 75 -180 108 -272 76 -19 -6 -77 -40 -129 -75 -51 -35 -97 -65 -100 -66 -4 -1 -40 39 -80 88 -41 50 -81 96 -89 103 -69 58 -192 69 -278 27z m-275 -1575 c35 -21 51 -37 48 -47 -3 -7 -94 -177 -202 -376 -218 -402 -226 -423 -178 -476 16 -17 110 -83 209 -146 161 -103 185 -115 225 -115 l45 0 180 188 c99 103 211 219 250 258 l70 72 495 -429 c272 -236 496 -433 498 -438 2 -6 -932 -668 -995 -705 -17 -9 -1653 1082 -1652 1103 0 9 33 180 72 380 l72 363 385 214 c346 191 387 212 405 200 11 -7 44 -28 73 -46z m1168 -205 c224 -91 412 -169 416 -173 8 -9 178 -648 178 -671 0 -9 -28 -49 -61 -89 -61 -73 -62 -73 -83 -54 -11 10 -140 122 -286 247 -146 126 -346 299 -445 385 -99 86 -190 162 -202 168 -12 7 -39 12 -59 12 -35 0 -47 -10 -208 -177 -94 -98 -209 -217 -256 -265 l-85 -88 -87 56 c-49 31 -88 59 -88 62 0 10 359 675 371 686 9 10 372 63 445 65 31 1 135 -37 450 -164z m994 -305 c100 -217 184 -398 186 -401 3 -6 -186 -62 -192 -57 -3 4 -276 662 -315 760 l-19 48 73 33 c49 23 74 30 79 22 4 -6 88 -188 188 -405z m-3292 335 c4 -4 -296 -865 -304 -874 -5 -6 -133 49 -140 60 -3 5 65 192 152 417 86 224 160 417 165 429 l8 23 58 -25 c31 -14 59 -28 61 -30z" id="svg_4" fill="#ffffff" fill-opacity="1"/>
</g></g></svg>